<?xml version="1.0" standalone="no"?>
<!DOCTYPE svg PUBLIC "-//W3C//DTD SVG 20010904//EN"
 "http://www.w3.org/TR/2001/REC-SVG-20010904/DTD/svg10.dtd">
<svg version="1.0" xmlns="http://www.w3.org/2000/svg"
 width="169.000000pt" height="432.000000pt" viewBox="0 0 169.000000 432.000000"
 preserveAspectRatio="xMidYMid meet">

<g transform="translate(0.000000,432.000000) scale(0.100000,-0.100000)"
fill="#000000" stroke="none">
<path d="M2 2158 l3 -2163 5 1690 c3 943 9 1672 13 1650 14 -65 66 -181 116
-258 43 -66 181 -207 202 -207 5 0 9 -508 9 -1177 0 -758 4 -1194 11 -1222 18
-79 61 -154 123 -216 72 -71 147 -110 245 -127 179 -31 376 64 459 220 65 121
62 59 63 1347 l1 1170 61 51 c123 100 211 240 258 409 32 112 32 277 0 395
-45 170 -161 343 -299 444 -69 50 -182 104 -265 126 l-72 19 380 3 c209 2 -1
4 -467 6 l-848 2 2 -2162z m578 2128 c-41 -13 -88 -28 -105 -35 -115 -47 -277
-188 -350 -306 -50 -80 -59 -100 -91 -205 l-23 -75 0 323 -1 322 323 -1 322 0
-75 -23z m323 -321 c-20 -14 -63 -75 -63 -89 0 -3 7 -6 15 -6 8 0 15 4 15 8 0
5 7 17 15 28 14 18 14 17 4 -8 -9 -20 -9 -31 -1 -41 9 -10 8 -14 -3 -14 -8 0
-12 4 -9 9 3 4 -2 8 -11 8 -8 0 -18 -7 -21 -15 -4 -8 -9 -13 -13 -11 -7 5 -4
-134 5 -201 12 -96 82 -66 86 36 l2 56 3 -52 c2 -30 9 -53 16 -55 10 -2 10 -8
0 -28 -10 -19 -13 -21 -13 -7 0 10 -4 15 -10 12 -5 -3 -10 -14 -10 -23 0 -9
-7 -30 -15 -46 -8 -15 -12 -33 -8 -39 3 -6 1 -7 -6 -3 -6 4 -17 3 -24 -2 -7
-6 -43 -20 -80 -32 -70 -23 -117 -58 -117 -88 0 -9 -9 -23 -20 -30 -21 -13
-21 -12 -4 13 14 21 15 28 4 38 -7 7 -11 8 -8 2 3 -5 -18 -27 -46 -48 l-51
-38 44 40 c24 21 38 39 30 39 -8 -1 -32 0 -54 2 -35 2 -33 3 23 11 74 9 164
49 135 60 -13 4 -7 8 23 13 45 8 56 31 15 32 -14 0 -61 8 -103 17 -89 20 -190
22 -254 6 -47 -12 -54 -31 -13 -38 22 -3 23 -4 4 -11 -18 -7 -16 -10 18 -30
21 -12 35 -25 32 -28 -9 -9 -79 53 -93 82 -16 32 -7 70 14 62 8 -3 13 -2 10 3
-3 4 6 13 20 20 28 12 45 15 28 3 -7 -4 25 -7 70 -8 70 0 95 -5 179 -38 54
-22 100 -36 104 -32 11 10 -57 74 -102 96 -24 12 -62 20 -90 20 -64 0 -55 7
15 11 63 5 75 19 53 63 -8 15 -10 25 -4 22 6 -4 11 1 12 11 0 10 6 -2 13 -27
22 -77 34 -99 82 -150 48 -51 68 -59 96 -37 14 11 11 25 -31 138 -50 134 -80
190 -113 213 -35 25 -48 10 -50 -58 0 -34 -3 -47 -5 -29 -3 19 -14 39 -26 48
-12 8 -17 15 -11 15 5 0 15 -5 22 -12 9 -9 12 -7 12 13 1 31 55 96 65 78 6 -8
4 -10 -5 -4 -10 6 -12 4 -7 -9 4 -10 3 -15 -3 -11 -20 12 -9 -4 25 -38 32 -32
34 -33 38 -13 3 12 6 4 7 -19 3 -33 5 -29 10 25 l7 65 1 -75 c2 -54 5 -71 12
-60 8 11 9 8 4 -12 -3 -16 -3 -36 1 -45 5 -10 9 -24 11 -31 7 -36 12 -16 12
55 1 53 -2 73 -8 63 -17 -27 -11 -2 13 52 26 57 72 118 90 118 6 0 2 -7 -10
-15z m54 -16 c4 -21 9 -27 16 -20 16 16 63 13 146 -10 118 -32 136 -70 82
-172 l-29 -56 34 -11 c140 -47 9 -195 -178 -202 l-58 -2 28 -24 27 -23 -37 23
c-55 34 -48 45 25 40 65 -4 134 12 182 44 28 18 32 30 13 37 -7 2 -4 3 8 1 28
-5 49 38 33 67 -6 12 -17 18 -25 15 -9 -4 -12 -2 -8 5 4 8 -1 9 -16 4 -13 -4
-20 -3 -17 2 4 6 -16 9 -46 8 l-52 -3 45 7 45 6 -45 13 c-25 7 -65 17 -90 21
-27 5 -35 9 -20 10 14 1 50 -5 80 -13 49 -13 57 -13 72 1 30 27 51 95 41 134
-9 32 -14 35 -84 56 -85 25 -142 29 -157 11 -6 -7 -12 -26 -15 -43 -2 -18 -5
-6 -6 28 0 31 -4 57 -8 57 -3 0 -15 -8 -27 -17 -20 -18 -20 -18 0 9 25 35 33
35 41 -3z m-192 0 c4 -11 4 -23 1 -26 -3 -4 -6 2 -6 13 0 16 -2 17 -11 4 -9
-13 -10 -12 -5 3 6 20 -13 23 -34 5 -12 -11 -12 -10 -1 5 18 23 48 22 56 -4z
m275 -42 c0 -2 -12 -14 -27 -28 l-28 -24 24 28 c23 25 31 32 31 24z m-349 -64
c13 -16 12 -17 -3 -4 -10 7 -18 15 -18 17 0 8 8 3 21 -13z m305 -43 c-46 -49
-59 -78 -31 -66 37 15 48 16 26 3 -18 -11 -20 -16 -10 -20 8 -3 4 -6 -10 -6
-21 -1 -23 -5 -19 -41 2 -22 0 -40 -4 -40 -5 0 -8 24 -9 53 0 46 -16 114 -18
78 -1 -8 -4 -11 -7 -8 -4 4 1 18 10 31 9 14 17 33 17 43 1 17 2 17 6 0 2 -9 9
-14 15 -11 5 3 2 -9 -7 -27 -16 -33 -15 -32 31 14 64 62 69 60 10 -3z m-446
30 c-14 -4 -45 -13 -70 -20 -75 -20 -94 -33 -97 -65 -3 -38 12 -86 38 -119 17
-21 24 -24 45 -16 14 6 33 10 42 9 9 0 -3 -7 -27 -14 -51 -16 -57 -12 -91 60
-25 51 -25 97 -1 119 19 18 132 54 166 54 16 0 15 -1 -5 -8z m367 -10 c1 -11
-2 -22 -8 -25 -5 -4 -6 2 -2 11 5 13 3 15 -8 9 -12 -8 -12 -6 0 8 17 21 16 21
18 -3z m278 -10 c-10 -11 -22 -20 -28 -20 -5 0 1 9 14 20 31 25 37 25 14 0z
m-470 -21 c9 -17 15 -33 13 -35 -3 -2 -12 12 -21 31 -21 43 -13 47 8 4z m-120
-19 c10 -11 16 -20 13 -20 -3 0 -13 9 -23 20 -10 11 -16 20 -13 20 3 0 13 -9
23 -20z m242 -82 c-2 -18 -4 -6 -4 27 0 33 2 48 4 33 2 -15 2 -42 0 -60z m230
76 c-3 -3 -12 -4 -19 -1 -8 3 -5 6 6 6 11 1 17 -2 13 -5z m-472 -54 c27 -27
47 -50 44 -50 -3 0 -27 23 -54 50 -27 28 -47 50 -44 50 3 0 27 -22 54 -50z
m-194 3 c13 -16 12 -17 -3 -4 -10 7 -18 15 -18 17 0 8 8 3 21 -13z m96 -39
c-3 -3 -12 -4 -19 -1 -8 3 -5 6 6 6 11 1 17 -2 13 -5z m550 -10 c-3 -3 -12 -4
-19 -1 -8 3 -5 6 6 6 11 1 17 -2 13 -5z m-457 -14 c18 -12 2 -12 -25 0 -13 6
-15 9 -5 9 8 0 22 -4 30 -9z m257 -52 c-3 -7 -5 -2 -5 12 0 14 2 19 5 13 2 -7
2 -19 0 -25z m166 25 c-7 -2 -21 -2 -30 0 -10 3 -4 5 12 5 17 0 24 -2 18 -5z
m-218 -87 c20 -19 23 -25 9 -18 -20 11 -62 60 -78 92 -4 8 3 2 15 -15 13 -16
37 -43 54 -59z m185 48 c0 -2 -9 -4 -20 -4 -11 0 -20 4 -20 9 0 5 9 7 20 4 11
-3 20 -7 20 -9z m168 -1 c-10 -2 -28 -2 -40 0 -13 2 -5 4 17 4 22 1 32 -1 23
-4z m-176 -44 c5 -3 3 -9 -6 -12 -12 -5 -16 0 -15 21 0 16 3 21 6 12 3 -8 10
-18 15 -21z m-419 -46 c-13 -2 -35 -2 -50 0 -16 2 -5 4 22 4 28 0 40 -2 28 -4z
m-105 -10 c-10 -2 -26 -2 -35 0 -10 3 -2 5 17 5 19 0 27 -2 18 -5z m215 0 c-7
-2 -21 -2 -30 0 -10 3 -4 5 12 5 17 0 24 -2 18 -5z m299 -58 c28 -38 28 -38 3
-11 -26 28 -28 29 -41 11 -7 -10 -11 -22 -7 -28 3 -6 1 -7 -5 -3 -6 3 -13 2
-17 -3 -6 -10 80 -81 98 -81 6 0 8 -3 4 -6 -7 -8 -67 28 -91 55 -17 19 -18 19
-53 -5 -20 -13 -43 -23 -52 -23 -13 1 -13 2 2 6 9 2 14 9 10 15 -4 7 0 9 10 5
10 -3 17 -2 17 3 0 5 -21 11 -47 13 -41 3 -38 4 18 5 60 2 67 4 77 27 7 14 19
28 27 31 10 4 13 15 10 33 -3 14 -2 19 1 11 4 -8 20 -33 36 -55z m91 12 c35
-24 87 -94 87 -116 -1 -9 -7 -2 -14 14 -15 33 -55 78 -101 113 -34 27 -15 19
28 -11z m-192 6 c13 -16 12 -17 -3 -4 -10 7 -18 15 -18 17 0 8 8 3 21 -13z
m-204 1 c-3 -3 -12 -4 -19 -1 -8 3 -5 6 6 6 11 1 17 -2 13 -5z m403 -49 c19
-19 32 -35 29 -35 -3 0 -20 16 -39 35 -19 19 -32 35 -29 35 3 0 20 -16 39 -35z
m-575 5 l20 -9 -20 0 c-11 0 -27 4 -35 9 -13 9 -13 10 0 9 8 0 24 -4 35 -9z
m540 -40 c10 -11 16 -20 13 -20 -3 0 -13 9 -23 20 -10 11 -16 20 -13 20 3 0
13 -9 23 -20z m-465 -7 c-37 -24 -90 -75 -90 -87 0 -5 10 -1 23 10 l22 19 -19
-22 c-10 -13 -23 -20 -27 -17 -11 7 -31 -44 -23 -58 4 -6 22 -7 43 -4 20 4 45
6 55 7 28 0 74 27 129 72 49 42 56 58 15 36 -21 -11 -22 -11 -9 4 9 12 28 17
60 16 40 -1 42 -2 19 -9 -15 -4 -51 -28 -80 -53 -69 -58 -109 -77 -172 -84
-41 -4 -55 -2 -66 12 -12 14 -11 21 5 52 20 37 110 123 128 123 6 0 0 -7 -13
-17z m441 -20 c13 -16 12 -17 -3 -4 -10 7 -18 15 -18 17 0 8 8 3 21 -13z
m-391 -26 c0 -2 -12 -14 -27 -28 l-28 -24 24 28 c23 25 31 32 31 24z m495 -15
c19 2 31 0 29 -4 -7 -11 -94 -10 -94 2 0 5 -8 7 -17 4 -15 -5 -15 -4 -4 4 10
7 21 7 34 0 11 -5 34 -8 52 -6z m-475 -15 c0 -2 -12 -14 -27 -28 l-28 -24 24
28 c23 25 31 32 31 24z m350 -726 c0 -16 -6 -33 -12 -39 -15 -12 -325 -178
-351 -188 -16 -6 -18 -2 -15 27 3 33 8 37 183 131 99 53 183 97 188 97 4 1 7
-12 7 -28z m0 -476 l0 -35 -190 0 -190 0 0 35 0 35 190 0 190 0 0 -35z m-86
-104 c19 -12 42 -33 51 -48 l17 -26 -23 17 c-34 23 -264 23 -298 0 -22 -16
-23 -16 -12 4 12 22 55 56 92 72 37 16 134 5 173 -19z m86 -236 l0 -35 -190 0
-190 0 0 35 0 35 190 0 190 0 0 -35z m-206 -105 l34 -30 82 30 c45 16 83 30
86 30 2 0 4 -15 4 -34 0 -33 -2 -35 -77 -65 -89 -35 -93 -36 -93 -17 0 32 -30
46 -100 46 -49 0 -73 -4 -84 -16 -15 -14 -16 -14 -16 1 0 9 15 32 34 51 44 44
83 45 130 4z m204 -202 l-3 -33 -187 -3 -188 -2 0 35 0 35 191 0 190 0 -3 -32z
m2 -107 c0 -36 7 -32 -164 -108 l-139 -62 -36 19 -36 18 45 21 c253 113 316
141 323 141 4 0 7 -13 7 -29z m-82 -376 c18 -13 41 -33 50 -46 16 -23 16 -23
-8 -6 -17 12 -44 17 -87 17 l-63 0 0 36 0 36 37 -7 c20 -3 52 -17 71 -30z
m-178 -5 c0 -26 -4 -30 -28 -30 -15 0 -38 -7 -51 -16 -22 -16 -23 -16 -12 5 9
16 77 71 88 71 2 0 3 -13 3 -30z m231 -208 c-50 -93 -223 -110 -299 -29 l-21
22 148 -3 c124 -3 149 -1 160 12 18 21 24 20 12 -2z"/>
</g>
</svg>
