<?xml version="1.0" standalone="no"?>
<!DOCTYPE svg PUBLIC "-//W3C//DTD SVG 20010904//EN"
 "http://www.w3.org/TR/2001/REC-SVG-20010904/DTD/svg10.dtd">
<svg version="1.0" xmlns="http://www.w3.org/2000/svg"
 width="170.000000pt" height="430.000000pt" viewBox="0 0 170.000000 430.000000"
 preserveAspectRatio="xMidYMid meet">

<g transform="translate(0.000000,430.000000) scale(0.100000,-0.100000)"
fill="#000000" stroke="none">
<path d="M241 4273 c-18 -14 -42 -45 -52 -67 -18 -39 -19 -114 -19 -1986 0
-1866 1 -1947 19 -1985 22 -50 69 -91 119 -105 50 -14 1084 -14 1134 0 50 14
97 55 119 105 18 38 19 119 19 1985 0 1866 -1 1947 -19 1985 -10 23 -33 53
-50 68 -32 27 -35 27 -171 27 l-139 0 -7 -57 c-9 -72 2 -308 21 -461 18 -141
19 -214 4 -300 -9 -53 -8 -96 6 -229 10 -89 15 -181 12 -202 l-5 -40 41 -7
c60 -10 100 -54 126 -139 12 -39 25 -89 28 -112 l6 -43 -64 2 -64 2 58 3 c41
3 57 8 57 18 0 12 -17 15 -72 17 l-73 2 75 6 c88 7 75 18 -25 23 l-70 3 78 2
c95 2 103 21 10 24 l-68 2 63 3 c52 3 63 7 58 19 -3 9 -6 22 -6 30 0 11 -18
14 -80 14 -89 0 -113 -19 -27 -22 l52 -2 -47 -3 c-27 -2 -48 -8 -48 -14 0 -5
5 -9 12 -9 8 0 9 -3 2 -10 -18 -18 6 -88 30 -93 19 -4 19 -4 -1 -6 -13 0 -23
-8 -23 -16 0 -11 18 -15 78 -18 l77 -3 -77 -2 c-108 -3 -101 -22 8 -22 72 0
85 2 81 15 -4 8 -2 17 3 20 12 7 24 -173 15 -226 -5 -28 -18 -53 -37 -72 -29
-30 -30 -30 -121 -24 -51 3 -113 13 -138 22 -43 15 -109 65 -109 82 0 4 90 7
201 5 188 -3 200 -2 197 15 -3 16 -20 18 -192 21 -130 2 -193 -1 -202 -9 -20
-17 -19 143 2 230 l16 66 84 -3 c55 -2 84 0 84 7 0 7 -30 11 -81 11 l-81 0 7
47 c8 58 38 119 64 133 11 5 34 10 51 10 l32 0 -5 103 c-5 88 -33 274 -36 240
-1 -7 -33 -46 -72 -87 -64 -68 -69 -77 -58 -97 9 -17 9 -34 -1 -76 -12 -47
-23 -62 -99 -136 -108 -104 -188 -167 -211 -167 -16 0 -107 100 -183 201 -41
54 -37 92 16 143 46 45 193 150 243 174 18 8 43 12 57 8 31 -7 143 -99 128
-104 -6 -2 -8 -8 -5 -13 3 -6 45 31 94 81 68 71 91 102 101 138 16 53 15 280
-1 472 -5 63 -12 182 -16 263 -6 129 -9 148 -23 145 -18 -4 -63 -108 -80 -187
-13 -59 -13 -151 -1 -231 23 -158 -66 -313 -226 -391 l-63 -31 15 -37 c9 -20
17 -42 18 -50 1 -13 -57 -61 -74 -61 -3 0 -12 24 -19 53 -16 64 -30 92 -31 62
0 -16 -2 -17 -10 -5 -16 26 -21 3 -9 -46 17 -69 32 -81 25 -19 l-6 50 13 -50
12 -50 -80 -28 c-44 -16 -101 -36 -128 -45 l-47 -16 -70 69 c-44 43 -70 78
-70 91 0 51 163 135 276 142 68 4 74 3 73 -14 0 -11 -3 -14 -6 -6 -2 6 -18 12
-35 12 -23 0 -28 -4 -24 -17 2 -10 7 -28 11 -40 11 -38 28 -27 22 15 l-6 37
11 -32 c13 -38 27 -43 29 -10 1 16 2 18 6 5 6 -26 22 -22 33 8 13 32 12 37 0
29 -5 -3 -10 0 -10 7 0 10 -3 9 -11 -2 -9 -13 -10 -13 -6 0 7 28 49 24 73 -6
l22 -27 44 16 c71 27 159 105 190 167 16 30 31 71 35 90 6 33 6 34 -11 17 -14
-13 -35 -17 -97 -17 -69 0 -79 -2 -79 -17 0 -10 -3 -29 -6 -43 -5 -21 -4 -22
6 -10 10 13 11 12 6 -3 -3 -10 -6 -20 -6 -23 0 -2 -26 -17 -57 -32 -80 -40
-212 -83 -264 -85 -42 -2 -44 -1 -71 48 -27 49 -38 84 -17 55 8 -12 9 -10 5
10 -3 14 -6 30 -7 35 0 6 -4 1 -9 -10 -8 -18 -9 -17 -9 8 -1 32 15 67 29 67 6
0 10 -10 10 -22 0 -19 -2 -20 -10 -8 -19 30 -11 -17 17 -92 27 -74 39 -96 48
-86 3 2 -8 35 -25 71 -16 37 -30 72 -30 79 0 7 16 -22 35 -66 18 -43 36 -81
39 -84 13 -12 4 26 -14 67 -24 51 -25 66 -4 31 l15 -25 -6 25 c-15 59 -15 65
-4 40 l12 -25 7 25 c5 14 8 19 9 13 1 -7 5 -13 11 -13 5 0 8 12 6 28 -2 15 -1
20 1 12 11 -34 26 -35 19 -1 -3 18 -6 40 -6 47 0 20 -18 17 -23 -3 -4 -17 -5
-17 -6 0 0 10 -5 15 -11 12 -5 -3 -7 -20 -5 -38 l5 -32 -10 33 c-11 34 -17 37
-38 23 -11 -6 -11 -17 -3 -47 15 -54 7 -54 -12 1 l-15 46 27 11 c45 17 194 48
235 48 49 0 44 -8 -7 -12 -39 -2 -44 -13 -27 -53 8 -17 9 -16 11 10 1 24 3 26
6 8 5 -27 28 -30 42 -5 6 9 11 11 11 5 0 -28 20 -11 20 18 0 26 3 30 22 27 13
-2 29 -15 36 -30 9 -20 20 -28 40 -28 47 0 106 21 134 48 28 25 28 27 27 146
-1 130 7 183 46 278 14 34 25 63 25 65 0 2 -190 3 -422 3 l-423 0 -34 -27z
m276 -555 c-3 -7 -5 -2 -5 12 0 14 2 19 5 13 2 -7 2 -19 0 -25z m180 -250 c-3
-8 -6 -5 -6 6 -1 11 2 17 5 13 3 -3 4 -12 1 -19z m143 -2630 c0 -4 -6 -5 -14
-2 -8 3 -12 12 -9 21 5 12 7 12 14 1 5 -7 9 -16 9 -20z m77 4 c14 11 14 9 0
-19 -9 -17 -26 -35 -38 -38 -31 -10 -36 3 -5 15 23 8 25 13 16 29 -13 26 -13
41 1 18 9 -15 13 -16 26 -5z m-104 -25 c26 -11 22 -12 -42 -12 -68 0 -79 3
-64 18 10 11 75 7 106 -6z m17 -57 c0 -5 -10 -10 -22 -9 -22 0 -22 1 -3 9 11
5 21 9 23 9 1 1 2 -3 2 -9z m-30 -265 c0 -88 -1 -95 -20 -95 -18 0 -20 7 -20
88 0 90 3 102 27 102 10 0 13 -22 13 -95z m150 0 c0 -78 -3 -95 -15 -95 -12 0
-15 17 -15 95 0 78 3 95 15 95 12 0 15 -17 15 -95z m178 -3 c3 -87 2 -92 -18
-92 -19 0 -20 6 -20 88 0 49 3 92 7 96 19 19 28 -8 31 -92z m184 8 c52 -94 54
-100 34 -100 -11 0 -116 169 -116 187 0 3 8 3 17 1 10 -2 39 -41 65 -88z
m-612 -6 c22 -47 40 -88 40 -90 0 -2 -7 -4 -16 -4 -19 0 -86 143 -78 165 4 8
8 15 11 15 2 0 22 -39 43 -86z m187 13 c-16 -30 -17 -36 -2 -70 14 -35 14 -37
-4 -37 -26 0 -56 71 -35 83 9 5 14 25 14 55 l0 46 22 -22 c22 -22 22 -23 5
-55z m-462 -18 c0 -78 0 -79 -17 -58 -22 26 -23 87 -2 117 8 12 16 22 17 22 1
0 2 -36 2 -81z m115 50 c0 -18 -18 -9 -23 12 -4 16 -3 18 9 8 8 -6 14 -15 14
-20z m530 -43 c0 -17 -8 -43 -18 -57 -17 -27 -17 -26 -17 53 0 77 0 78 18 57
9 -11 17 -35 17 -53z m-520 -25 c0 -10 -8 -29 -18 -41 -18 -22 -18 -22 -14 19
3 27 9 41 18 41 8 0 14 -9 14 -19z"/>
<path d="M802 3785 c0 -16 2 -22 5 -12 2 9 2 23 0 30 -3 6 -5 -1 -5 -18z"/>
<path d="M822 3785 c0 -16 2 -22 5 -12 2 9 2 23 0 30 -3 6 -5 -1 -5 -18z"/>
<path d="M623 3793 c-16 -3 -23 -11 -23 -28 0 -56 29 -77 31 -22 2 31 2 31 6
4 3 -16 9 -27 14 -25 6 2 10 7 10 11 -1 4 -1 21 -1 37 0 17 -3 29 -7 29 -5 -1
-18 -4 -30 -6z"/>
<path d="M671 3773 c-1 -18 4 -33 9 -33 12 0 12 17 0 45 -7 17 -9 15 -9 -12z"/>
<path d="M774 3735 c-1 -5 -5 -19 -7 -30 -3 -15 -5 -13 -6 8 -1 17 -7 27 -16
27 -19 0 -19 -14 2 -81 l17 -54 7 40 c6 39 6 39 8 7 2 -52 21 -27 23 31 l2 52
3 -47 c2 -27 8 -48 14 -48 12 0 15 11 24 70 7 55 -6 45 -16 -13 l-8 -42 3 45
c3 42 1 45 -22 45 -13 0 -26 -4 -28 -10z"/>
<path d="M704 3715 c3 -8 8 -37 12 -65 4 -32 11 -50 20 -50 17 0 17 -2 -3 70
-9 33 -21 60 -26 60 -5 0 -7 -7 -3 -15z"/>
<path d="M683 3699 c3 -13 8 -42 11 -64 5 -34 5 -36 -3 -10 -5 17 -12 42 -15
58 -7 30 -26 37 -26 10 0 -14 -2 -15 -9 -4 -6 9 -11 10 -15 2 -4 -6 3 -33 15
-61 19 -43 25 -50 43 -44 11 4 23 8 25 10 8 7 -11 114 -21 120 -7 5 -9 -1 -5
-17z m-3 -103 c-1 -6 -7 4 -15 23 -8 18 -15 38 -15 45 1 6 7 -4 15 -23 8 -18
15 -38 15 -45z"/>
<path d="M600 3676 c0 -10 49 -109 49 -100 1 14 -38 104 -44 104 -3 0 -5 -2
-5 -4z"/>
<path d="M575 3660 c-6 -10 29 -85 45 -95 15 -10 12 16 -10 63 -20 44 -25 48
-35 32z"/>
<path d="M547 3629 c-6 -24 11 -79 24 -79 5 0 3 13 -6 30 -8 16 -15 33 -15 37
1 4 10 -10 22 -32 12 -22 23 -35 25 -28 4 11 -33 93 -41 93 -2 0 -6 -9 -9 -21z"/>
<path d="M460 3625 c0 -5 5 -17 10 -25 5 -8 10 -10 10 -5 0 6 -5 17 -10 25 -5
8 -10 11 -10 5z"/>
<path d="M726 3495 c-4 -15 -5 -30 -1 -33 3 -3 5 3 6 14 0 10 3 13 6 7 5 -14
23 -18 23 -5 0 5 -6 16 -14 27 -12 17 -13 16 -20 -10z"/>
<path d="M550 3503 c1 -5 11 -28 24 -52 27 -52 42 -41 26 19 -8 29 -16 40 -30
40 -11 0 -20 -3 -20 -7z"/>
<path d="M520 3483 c0 -10 8 -35 18 -55 13 -29 20 -36 32 -28 12 8 11 15 -8
54 -22 47 -42 60 -42 29z"/>
<path d="M490 3481 c0 -19 43 -110 50 -106 9 5 -32 115 -42 115 -5 0 -8 -4 -8
-9z"/>
<path d="M455 3470 c-5 -9 26 -81 47 -107 24 -30 24 2 1 57 -26 59 -36 70 -48
50z"/>
<path d="M416 3452 c-6 -10 123 -206 130 -199 7 6 -107 207 -117 207 -4 0 -10
-4 -13 -8z"/>
<path d="M758 3455 c-3 -4 -2 -22 4 -41 5 -19 7 -41 5 -47 -2 -7 -7 7 -11 30
-7 41 -26 70 -26 40 0 -24 33 -112 38 -99 2 7 8 9 14 6 7 -4 8 8 3 37 -9 55
-19 82 -27 74z"/>
<path d="M380 3432 c0 -9 92 -146 117 -174 9 -10 20 -15 24 -12 11 7 -112 192
-128 193 -7 1 -13 -3 -13 -7z"/>
<path d="M354 3412 c-6 -4 -15 -18 -19 -31 -6 -20 3 -33 56 -87 35 -35 67 -64
72 -64 5 0 -21 35 -58 78 l-67 77 74 -77 c79 -82 109 -95 55 -25 -18 23 -46
63 -62 89 -32 51 -33 52 -51 40z"/>
<path d="M630 3407 c0 -25 32 -107 42 -107 5 0 7 8 4 18 -3 9 -10 36 -16 60
-10 39 -30 58 -30 29z"/>
<path d="M722 3400 c0 -8 6 -31 13 -50 7 -19 13 -28 13 -20 0 8 -6 31 -13 50
-7 19 -13 28 -13 20z"/>
<path d="M618 3345 c8 -30 19 -55 24 -55 11 0 10 10 -8 63 -22 65 -35 59 -16
-8z"/>
<path d="M790 3395 c0 -5 5 -17 10 -25 5 -8 10 -10 10 -5 0 6 -5 17 -10 25 -5
8 -10 11 -10 5z"/>
<path d="M566 3382 c-6 -11 29 -87 44 -97 10 -6 11 1 5 31 -11 61 -33 91 -49
66z"/>
<path d="M550 3336 c12 -34 33 -66 42 -66 4 0 -2 20 -14 45 -23 47 -44 63 -28
21z"/>
<path d="M520 3334 c0 -11 42 -75 47 -71 6 7 -29 77 -39 77 -4 0 -8 -3 -8 -6z"/>
<path d="M826 3301 c-6 -10 44 -113 73 -151 38 -48 32 -11 -8 58 -23 39 -41
75 -41 81 0 14 -17 23 -24 12z"/>
<path d="M884 3243 c19 -38 41 -77 49 -88 14 -18 16 -18 22 -3 7 17 -80 158
-97 158 -4 0 7 -30 26 -67z"/>
<path d="M909 3264 c33 -60 68 -100 77 -91 13 13 -27 77 -65 106 l-35 26 23
-41z"/>
<path d="M783 3283 c-7 -2 -13 -9 -13 -14 0 -17 114 -172 118 -161 2 7 8 9 14
6 6 -4 -1 13 -16 37 -15 24 -37 65 -49 91 -21 46 -29 52 -54 41z m65 -85 c45
-72 58 -106 19 -48 -33 48 -82 137 -70 125 5 -5 28 -40 51 -77z"/>
<path d="M742 3247 c-8 -9 11 -44 71 -133 111 -164 114 -167 126 -159 8 4 8
13 0 28 -18 34 -178 277 -183 277 -2 0 -8 -6 -14 -13z"/>
<path d="M710 3224 c0 -27 138 -241 179 -278 33 -30 37 -10 7 31 -16 21 -59
85 -98 143 -63 96 -88 125 -88 104z"/>
<path d="M690 3210 c0 -21 52 -125 85 -170 19 -26 51 -60 70 -74 34 -26 33
-24 -15 39 -28 37 -69 100 -91 141 -40 72 -49 84 -49 64z"/>
<path d="M660 3190 c0 -29 152 -246 192 -274 45 -32 29 -4 -36 63 -47 50 -77
92 -102 145 -30 67 -54 96 -54 66z"/>
<path d="M634 3153 c17 -72 226 -317 226 -265 0 4 -16 24 -36 43 -31 29 -105
133 -158 222 -9 15 -21 27 -27 27 -7 0 -9 -10 -5 -27z"/>
<path d="M1001 3166 c-9 -10 -9 -20 -2 -34 12 -23 41 -48 42 -36 0 5 2 18 4
29 10 46 -19 72 -44 41z m37 -32 c-4 -3 -12 5 -18 18 -12 22 -12 22 6 6 10
-10 15 -20 12 -24z"/>
<path d="M595 3150 c-3 -6 10 -29 29 -53 32 -37 152 -198 178 -237 36 -53 -66
73 -122 150 -82 116 -94 127 -115 110 -13 -11 -2 -27 78 -112 103 -112 179
-204 101 -123 -26 28 -81 85 -121 128 -40 42 -75 77 -78 77 -19 0 5 -34 63
-90 37 -36 92 -92 121 -124 30 -35 55 -56 59 -49 4 5 17 15 30 22 22 12 21 14
-58 104 -43 51 -94 118 -112 149 -34 58 -42 66 -53 48z"/>
<path d="M962 3137 c-8 -9 -2 -23 21 -54 18 -23 35 -42 40 -43 16 0 5 37 -22
73 -22 29 -31 34 -39 24z"/>
<path d="M930 3109 c0 -6 14 -31 31 -56 21 -30 35 -41 41 -35 7 7 0 25 -22 56
-32 45 -50 57 -50 35z"/>
<path d="M902 3091 c-10 -6 -6 -20 19 -59 33 -54 46 -62 55 -38 4 11 -49 107
-59 106 -1 0 -8 -4 -15 -9z m68 -98 c0 -5 -14 13 -30 39 -17 27 -30 51 -30 55
0 5 14 -13 30 -39 17 -27 30 -51 30 -55z"/>
<path d="M540 3039 c0 -17 58 -90 103 -128 15 -13 26 -26 23 -29 -7 -6 41 -64
63 -76 9 -5 0 8 -18 28 -43 44 -29 48 16 4 18 -17 35 -29 38 -26 3 2 -46 58
-109 124 -63 65 -115 112 -116 103z"/>
<path d="M1168 2993 c12 -2 30 -2 40 0 9 3 -1 5 -23 4 -22 0 -30 -2 -17 -4z"/>
<path d="M1238 2993 c6 -2 18 -2 25 0 6 3 1 5 -13 5 -14 0 -19 -2 -12 -5z"/>
<path d="M1120 2970 c0 -5 20 -10 44 -10 25 0 48 5 51 10 4 6 -13 10 -44 10
-28 0 -51 -4 -51 -10z"/>
<path d="M1230 2970 c0 -5 23 -10 51 -10 31 0 48 4 44 10 -3 6 -26 10 -51 10
-24 0 -44 -4 -44 -10z"/>
<path d="M1105 2940 c-4 -6 15 -10 49 -10 31 0 56 5 56 10 0 6 -22 10 -49 10
-28 0 -53 -4 -56 -10z"/>
<path d="M1230 2941 c0 -6 24 -12 53 -14 l52 -3 -52 -2 c-40 -2 -53 -6 -53
-17 0 -12 15 -15 75 -15 43 0 75 4 75 10 0 6 -4 10 -10 10 -5 0 -10 9 -10 20
0 18 -7 20 -65 20 -36 0 -65 -4 -65 -9z"/>
<path d="M1097 2914 c-18 -18 -2 -24 59 -24 48 0 65 3 62 13 -5 13 -109 23
-121 11z"/>
<path d="M1085 2870 c-4 -6 20 -10 64 -10 41 0 71 4 71 10 0 6 -28 10 -64 10
-36 0 -68 -4 -71 -10z"/>
<path d="M1080 2840 c0 -6 30 -10 70 -10 40 0 70 4 70 10 0 6 -30 10 -70 10
-40 0 -70 -4 -70 -10z"/>
<path d="M1070 2780 c0 -6 35 -10 86 -10 54 0 83 4 79 10 -3 6 -42 10 -86 10
-46 0 -79 -4 -79 -10z"/>
<path d="M1060 2751 c0 -5 10 -12 23 -14 19 -4 18 -4 -5 -6 -18 0 -28 -7 -28
-16 0 -12 15 -15 68 -17 l67 -2 -75 -6 c-88 -7 -75 -18 25 -23 l70 -3 -82 -2
c-65 -2 -83 -5 -83 -17 0 -10 17 -15 68 -18 l67 -3 -67 -2 c-53 -2 -68 -5 -68
-17 0 -12 18 -15 105 -15 59 0 105 4 105 9 0 6 -15 12 -32 14 l-33 4 33 1 c35
2 45 27 15 35 -17 4 -17 5 0 6 27 2 20 19 -10 24 l-28 4 28 2 c55 2 23 26 -44
32 l-64 6 63 1 c48 2 62 5 62 17 0 12 -17 15 -90 15 -49 0 -90 -4 -90 -9z"/>
<path d="M1260 2635 c0 -12 16 -15 85 -15 69 0 85 3 85 15 0 12 -16 15 -85 15
-69 0 -85 -3 -85 -15z"/>
<path d="M1260 2600 c0 -6 37 -10 90 -10 53 0 90 4 90 10 0 6 -37 10 -90 10
-53 0 -90 -4 -90 -10z"/>
<path d="M1040 2570 c0 -5 26 -11 58 -13 l57 -3 -57 -2 c-32 -1 -58 -6 -58
-12 0 -6 73 -9 203 -8 200 2 201 2 67 8 l-135 6 133 2 c109 2 132 5 132 17 0
12 -31 14 -200 15 -117 0 -200 -4 -200 -10z"/>
<path d="M1075 2450 c17 -18 31 -20 187 -20 161 0 168 1 168 20 0 19 -7 20
-187 20 -185 0 -186 0 -168 -20z"/>
<path d="M1155 2404 c20 -9 51 -13 95 -10 45 3 56 2 35 -3 -25 -7 -20 -9 30
-10 73 -1 114 18 45 20 l-45 2 55 7 c38 5 8 7 -95 8 -137 0 -147 -1 -120 -14z"/>
</g>
</svg>
