<?xml version="1.0" standalone="no"?>
<!DOCTYPE svg PUBLIC "-//W3C//DTD SVG 20010904//EN"
 "http://www.w3.org/TR/2001/REC-SVG-20010904/DTD/svg10.dtd">
<svg version="1.0" xmlns="http://www.w3.org/2000/svg"
 width="152.000000pt" height="419.000000pt" viewBox="0 0 152.000000 419.000000"
 preserveAspectRatio="xMidYMid meet">

<g transform="translate(0.000000,419.000000) scale(0.100000,-0.100000)"
fill="#000000" stroke="none">
<path d="M488 4147 c-97 -79 -138 -180 -138 -340 0 -103 -10 -100 130 -37 92
42 186 70 235 70 17 0 74 11 126 25 103 27 119 29 119 16 0 -5 -41 -23 -91
-41 -103 -38 -166 -76 -294 -179 -49 -40 -120 -91 -157 -113 -56 -33 -68 -45
-68 -66 l0 -25 148 8 c81 4 170 9 197 11 44 2 54 7 82 39 31 36 31 38 16 61
-9 14 -13 27 -9 31 3 3 6 2 6 -3 0 -5 9 -10 20 -10 22 0 27 12 8 19 -7 3 -3 4
9 4 26 -1 27 -25 3 -44 -10 -8 -11 -12 -3 -13 7 0 -5 -19 -27 -42 l-39 -43
100 -26 c74 -19 107 -33 129 -54 41 -39 55 -89 41 -141 -13 -47 -34 -69 -114
-117 -36 -21 -65 -47 -75 -68 -21 -41 -56 -66 -104 -75 l-38 -6 0 96 0 96 40
0 40 0 -1 -72 c-1 -40 -4 -63 -6 -50 -2 12 -11 22 -19 22 -8 0 -14 4 -14 10 0
5 7 7 15 4 12 -5 15 3 15 35 0 34 -3 41 -20 41 -17 0 -20 -7 -22 -47 l-1 -48
-7 50 c-6 44 -7 40 -8 -37 -2 -72 1 -88 13 -88 9 0 15 10 16 23 1 17 2 18 6 4
3 -10 12 -17 21 -15 14 3 18 18 20 81 2 42 6 77 10 77 16 -1 42 -28 39 -41 -2
-8 -2 -11 0 -7 2 4 10 5 16 2 18 -7 108 57 133 94 34 49 41 108 17 141 -52 72
-257 118 -425 95 l-46 -6 61 -42 c77 -53 106 -90 90 -115 -7 -10 -9 -28 -6
-40 3 -11 0 -34 -5 -51 -9 -24 -8 -30 4 -30 10 0 14 -11 13 -37 l-2 -38 -7 35
c-5 26 -8 13 -9 -52 -1 -61 3 -88 12 -91 7 -3 5 -6 -5 -6 -16 -1 -18 10 -18
91 0 50 -3 88 -6 85 -4 -4 -6 -45 -5 -92 2 -55 -2 -85 -8 -85 -7 0 -11 32 -11
86 0 54 -4 83 -10 79 -5 -3 -11 -27 -12 -53 l-1 -47 -7 50 c-6 47 -7 45 -8
-27 -2 -71 10 -104 21 -60 4 13 5 11 6 -5 1 -31 -23 -30 -54 2 -24 24 -37 94
-15 80 6 -3 10 -18 10 -33 0 -15 5 -34 10 -42 7 -10 10 5 9 50 0 36 -3 59 -6
53 -2 -7 -9 -13 -14 -13 -6 0 -7 5 -3 11 4 8 0 9 -15 4 -25 -8 -26 1 -5 35 12
20 14 21 9 4 -6 -24 21 -30 29 -7 3 8 10 12 16 8 5 -3 16 8 25 25 8 16 18 30
21 30 2 0 0 -9 -6 -21 -7 -11 -9 -23 -6 -27 3 -3 6 0 6 6 0 7 6 11 13 9 7 -1
12 7 11 20 0 12 3 20 7 18 3 -3 7 7 7 20 0 22 -2 23 -13 9 -11 -16 -12 -15
-19 1 -3 10 -4 26 -1 36 4 11 2 19 -4 19 -6 0 -11 -8 -12 -17 0 -16 -1 -16 -8
0 -6 17 -8 16 -19 -8 -16 -34 -15 -40 3 -25 11 9 15 9 15 1 0 -7 5 -9 10 -6
17 10 11 -13 -11 -47 -12 -18 -18 -25 -15 -15 19 54 19 53 3 34 -14 -17 -16
-16 -22 12 -3 16 -1 39 5 50 7 14 7 21 0 21 -5 0 -10 -6 -10 -12 0 -9 -4 -8
-11 2 -8 11 -9 7 -4 -17 3 -17 2 -34 -3 -37 -11 -6 -25 51 -16 65 7 12 91 11
114 -1 30 -16 34 7 7 32 -23 21 -88 66 -140 95 -12 7 -55 13 -94 13 l-73 0 0
-360 0 -360 -77 -74 c-89 -84 -150 -180 -191 -294 -24 -70 -27 -90 -27 -222 0
-133 3 -152 28 -225 44 -125 113 -226 218 -320 l44 -39 5 -616 c5 -613 5 -615
28 -672 32 -80 99 -150 180 -190 65 -32 69 -33 202 -33 125 0 139 2 191 26
151 71 218 192 219 392 0 104 12 101 -140 32 -92 -42 -150 -57 -257 -70 -29
-3 -69 -12 -90 -19 -57 -20 -123 -30 -123 -18 0 6 24 18 52 28 132 42 179 70
331 191 42 34 111 83 152 109 60 38 75 52 75 72 l0 25 -147 -8 c-82 -4 -170
-9 -196 -11 -29 -1 -56 -9 -68 -20 -28 -25 -63 -84 -55 -92 4 -3 11 -1 15 7 6
10 10 9 15 -5 3 -9 4 -19 1 -22 -3 -3 -5 -1 -5 4 0 5 -9 10 -20 10 -22 0 -27
-12 -7 -19 6 -3 2 -4 -10 -4 -26 1 -27 25 -3 44 9 7 10 12 4 13 -7 0 6 19 27
43 l39 42 -37 8 c-117 26 -172 48 -201 81 -79 90 -41 190 98 257 29 14 49 31
50 41 1 45 102 111 143 94 7 -2 2 -5 -10 -5 -15 -1 -23 -7 -23 -18 0 -15 -2
-15 -9 -4 -5 8 -16 11 -25 8 -13 -5 -16 -22 -16 -82 0 -41 -3 -75 -7 -75 -17
1 -43 28 -40 41 2 8 2 11 0 6 -3 -4 -9 -5 -14 -2 -13 9 -95 -42 -123 -76 -24
-28 -46 -86 -46 -121 0 -25 48 -77 85 -92 91 -38 263 -57 366 -40 l37 6 -60
42 c-78 53 -107 90 -91 115 7 10 9 28 6 40 -3 11 0 34 5 51 9 24 8 30 -4 30
-9 0 -14 10 -13 33 l1 32 8 -30 c5 -21 8 -5 9 57 1 61 -3 88 -11 91 -7 3 2 6
20 6 l32 1 0 -86 c0 -54 4 -83 10 -79 6 3 11 25 12 48 l1 42 7 -45 c6 -40 7
-36 8 33 2 72 -11 105 -21 55 -4 -20 -4 -19 -6 5 -1 35 21 36 54 2 16 -15 25
-36 25 -55 0 -35 -20 -32 -21 3 0 12 -4 31 -9 42 -6 14 -9 0 -9 -45 1 -36 3
-59 6 -52 2 6 9 12 14 12 6 0 7 -5 3 -11 -4 -8 0 -9 15 -4 25 8 26 -1 5 -35
-12 -20 -14 -21 -9 -4 6 24 -21 30 -29 7 -3 -8 -10 -12 -16 -8 -5 3 -16 -8
-25 -25 -8 -16 -18 -30 -21 -30 -2 0 0 9 6 21 7 11 9 23 6 27 -3 3 -6 0 -6 -6
0 -7 -6 -11 -12 -10 -8 2 -13 -6 -12 -19 0 -12 -3 -20 -7 -18 -3 3 -6 -7 -6
-20 0 -23 1 -24 12 -8 12 15 13 15 19 -4 4 -11 4 -28 0 -37 -3 -9 -2 -16 4
-16 5 0 13 15 16 33 4 17 13 40 20 50 13 17 15 16 21 -12 3 -16 1 -39 -5 -50
-7 -14 -7 -21 0 -21 5 0 10 6 10 13 0 8 4 7 11 -3 8 -11 9 -7 4 17 -3 17 -2
34 3 37 11 6 25 -51 16 -65 -6 -10 -84 -12 -108 -3 -8 3 -12 13 -9 22 4 15 3
15 -6 2 -19 -26 -12 -50 20 -68 17 -9 54 -34 82 -55 48 -35 54 -37 129 -37
l78 0 0 365 c0 324 2 365 16 373 38 21 139 132 179 197 24 39 56 106 72 150
25 73 28 92 28 225 0 133 -3 152 -28 225 -39 111 -103 210 -191 293 l-75 71
-3 613 c-3 612 -3 613 -26 669 -25 63 -85 137 -136 168 -31 20 -49 21 -249 21
l-216 0 -53 -43z m453 -344 c0 -5 2 -16 4 -26 3 -17 2 -17 -20 -3 -31 21 -55
21 -29 0 18 -15 18 -15 -3 -5 -29 15 -36 14 -30 -3 4 -10 -1 -12 -16 -9 -20 4
-20 3 3 -11 31 -19 44 -20 34 -3 -4 6 -3 8 1 4 5 -4 10 -14 11 -22 2 -11 -2
-12 -16 -5 -27 15 -34 12 -19 -7 12 -14 10 -14 -14 2 -32 21 -50 12 -21 -11
18 -14 18 -15 -3 -4 -27 13 -30 3 -5 -17 15 -13 15 -13 -5 -3 -27 13 -30 3 -5
-17 15 -13 15 -13 -5 -3 -29 14 -29 27 1 71 31 46 134 99 137 72z m69 -63
c-17 -11 -43 2 -46 23 -1 10 3 14 14 10 11 -5 13 -3 7 8 -4 8 3 4 16 -9 20
-19 22 -24 9 -32z m-46 -52 c-5 -7 -2 -9 8 -6 8 4 15 0 15 -7 0 -10 -5 -11
-19 -4 -10 6 -15 15 -12 21 5 8 1 9 -10 5 -11 -5 -15 -3 -10 5 5 7 2 9 -8 6
-8 -4 -15 0 -15 7 0 11 6 11 29 -1 17 -9 26 -20 22 -26z m46 16 c0 -2 -9 0
-20 6 -11 6 -20 13 -20 16 0 2 9 0 20 -6 11 -6 20 -13 20 -16z m20 2 c0 -35
-17 -76 -32 -76 -9 0 -10 3 -2 8 6 4 10 15 8 25 -1 10 2 14 8 11 7 -5 9 4 6
25 -2 17 -1 31 4 31 4 0 8 -11 8 -24z m-52 -61 c2 -1 -4 -5 -13 -9 -10 -4 -14
-2 -9 5 4 7 0 9 -13 5 -11 -3 -28 1 -39 9 -18 15 -18 15 0 8 14 -5 17 -3 12 6
-5 8 4 6 25 -4 19 -10 35 -19 37 -20z m-98 -1 c0 -2 -9 0 -20 6 -11 6 -20 13
-20 16 0 2 9 0 20 -6 11 -6 20 -13 20 -16z m-86 -16 c7 -5 4 -8 -6 -8 -12 0
-18 7 -17 23 0 15 2 17 6 7 3 -8 11 -18 17 -22z m76 -4 c0 -2 -9 0 -20 6 -11
6 -20 13 -20 16 0 2 9 0 20 -6 11 -6 20 -13 20 -16z m109 -30 c-31 -33 -72
-54 -101 -53 -22 2 -22 2 2 6 l24 5 -24 15 c-17 9 -18 12 -5 8 11 -4 29 -9 40
-12 17 -4 18 -3 5 7 -13 10 -12 11 3 6 10 -3 25 1 33 9 9 8 12 15 7 16 -7 0
24 16 36 18 3 1 -6 -11 -20 -25z m-49 6 c8 -5 11 -10 5 -10 -5 0 -17 5 -25 10
-8 5 -10 10 -5 10 6 0 17 -5 25 -10z m-410 -310 c0 -5 -7 -7 -15 -4 -10 4 -15
0 -15 -12 0 -16 -2 -17 -10 -4 -8 12 -11 11 -16 -8 -5 -18 -9 -20 -15 -10 -7
10 -9 9 -9 -4 0 -10 -4 -18 -9 -18 -5 0 -9 -20 -8 -44 1 -24 5 -42 9 -40 4 3
5 -3 1 -12 -4 -12 -3 -15 5 -10 7 4 12 2 12 -4 0 -7 12 -9 30 -6 17 2 30 0 30
-5 0 -15 -67 -10 -81 7 -7 8 -14 38 -16 65 -2 44 1 52 33 84 32 33 74 47 74
25z m-16 -59 c-4 -17 -9 -30 -11 -27 -3 2 -2 19 2 36 9 41 17 33 9 -9z m20 -5
c-3 -15 -8 -25 -11 -23 -2 3 -1 17 3 31 3 15 8 25 11 23 2 -3 1 -17 -3 -31z
m-50 -20 c-3 -21 -8 -35 -11 -32 -2 2 -1 20 3 40 3 21 8 35 11 32 2 -2 1 -20
-3 -40z m92 -2 c-4 -9 -9 -15 -11 -12 -3 3 -3 13 1 22 4 9 9 15 11 12 3 -3 3
-13 -1 -22z m-29 -6 c-3 -8 -6 -5 -6 6 -1 11 2 17 5 13 3 -3 4 -12 1 -19z
m-90 -10 c-3 -8 -6 -5 -6 6 -1 11 2 17 5 13 3 -3 4 -12 1 -19z m38 -25 c-3
-16 -10 -32 -15 -37 -5 -5 -4 7 2 27 13 43 23 50 13 10z m87 5 c-7 -7 -12 -8
-12 -2 0 14 12 26 19 19 2 -3 -1 -11 -7 -17z m-51 -15 c-12 -20 -14 -14 -5 12
4 9 9 14 11 11 3 -2 0 -13 -6 -23z m187 -597 c-10 -7 -15 -16 -11 -19 3 -4 1
-7 -6 -7 -7 0 -9 -4 -6 -10 3 -5 2 -10 -3 -10 -5 0 -8 -12 -5 -27 3 -27 3 -27
-7 -5 -13 30 17 92 44 92 6 0 3 -7 -6 -14z m73 -13 c31 -27 69 -94 68 -123 0
-8 -9 7 -19 35 -19 48 -45 80 -85 103 -11 6 -15 12 -8 12 6 0 26 -12 44 -27z
m-180 -30 c29 -14 55 -27 57 -29 2 -1 -3 -24 -12 -50 -8 -27 -15 -41 -15 -32
-1 9 3 28 8 41 8 19 6 29 -7 41 -31 27 -121 59 -108 38 2 -4 -7 -8 -22 -7 -24
0 -29 -6 -45 -55 -10 -30 -16 -65 -14 -77 2 -12 0 -20 -4 -17 -5 3 -9 -3 -10
-13 0 -10 -3 -13 -5 -6 -9 22 35 157 57 176 29 24 56 22 120 -10z m166 -25
c-3 -7 -5 -2 -5 12 0 14 2 19 5 13 2 -7 2 -19 0 -25z m13 -198 c11 0 20 6 20
13 0 8 3 8 9 -2 5 -8 16 -11 25 -8 12 5 16 20 16 58 0 66 6 61 14 -11 3 -30 5
-56 6 -57 1 -9 27 0 44 15 21 17 21 17 3 -5 -20 -23 -16 -43 8 -43 7 0 16 -6
18 -12 6 -14 33 13 68 67 10 17 19 25 19 19 0 -6 -16 -32 -35 -57 -34 -45 -35
-48 -20 -71 11 -16 13 -26 6 -31 -6 -3 -11 2 -11 12 0 15 -2 16 -10 3 -7 -12
-10 -8 -10 14 0 16 -3 26 -6 23 -4 -3 -15 5 -26 18 -12 15 -25 22 -35 18 -11
-4 -14 -2 -9 5 8 13 -50 26 -96 20 l-33 -3 5 100 5 100 3 -92 c2 -85 5 -93 22
-93z m258 168 c13 -13 16 -59 5 -96 -4 -17 -8 -20 -14 -11 -4 7 -3 21 2 31 6
11 9 31 7 46 -2 22 -8 26 -27 24 -32 -3 -78 -37 -112 -85 -16 -22 -29 -36 -29
-32 0 16 53 77 93 106 44 32 57 35 75 17z m-361 -80 c-3 -7 -5 -2 -5 12 0 14
2 19 5 13 2 -7 2 -19 0 -25z m40 10 c-3 -8 -6 -5 -6 6 -1 11 2 17 5 13 3 -3 4
-12 1 -19z m-89 -48 c-2 -22 0 -40 4 -40 5 0 8 -7 8 -15 0 -11 11 -15 40 -15
35 0 40 3 41 23 l1 22 6 -22 c14 -47 46 -70 91 -64 7 2 10 -2 6 -8 -3 -6 1
-11 9 -11 9 0 16 -7 16 -15 0 -8 4 -15 9 -15 5 0 17 -29 26 -65 19 -69 52
-115 82 -115 10 0 24 -10 31 -21 13 -21 13 -21 -9 -5 -13 9 -27 16 -30 16 -9
0 -5 -43 6 -60 5 -9 4 -11 -3 -6 -8 5 -12 -5 -12 -32 0 -131 -121 -256 -174
-180 -9 12 -16 27 -16 33 0 5 5 3 11 -5 9 -12 10 -11 4 5 -25 71 -16 131 36
267 16 43 29 83 29 90 0 16 -78 -60 -96 -94 -8 -15 -14 -37 -15 -50 0 -13 -3
-17 -6 -10 -2 6 -8 10 -13 7 -4 -3 -6 4 -3 15 7 26 -5 25 -36 -2 l-26 -23 19
23 c21 24 16 28 -16 11 -12 -7 -18 -7 -14 -1 4 6 -10 9 -36 6 -28 -2 -19 2 26
11 78 17 136 47 185 98 27 28 32 41 27 61 -8 33 -14 32 -114 -4 -92 -33 -96
-34 -87 -20 3 6 16 10 28 11 20 1 20 2 -3 9 -24 8 -24 8 6 9 17 1 46 4 65 8
28 5 30 7 14 14 -19 7 -18 8 3 8 29 1 28 9 -5 43 -24 25 -33 28 -87 27 -45 -1
-54 -3 -36 -9 19 -6 14 -7 -22 -6 -25 0 -42 4 -36 7 6 4 -14 10 -43 14 -58 8
-119 9 -127 1 -2 -3 17 -19 44 -35 l48 -31 23 22 c13 12 26 19 29 15 4 -4 -1
-9 -10 -13 -9 -3 -13 -11 -9 -17 3 -5 1 -7 -5 -3 -14 8 -27 -13 -15 -25 5 -5
29 -13 54 -18 43 -9 43 -9 9 -10 l-35 -2 30 -14 c42 -19 24 -18 -25 1 -22 9
-38 19 -36 23 7 10 -16 34 -61 64 -53 34 -56 20 -5 -23 20 -18 28 -28 17 -22
-33 17 -67 59 -63 79 2 11 15 20 33 23 20 4 26 8 18 13 -7 5 -13 16 -12 25 0
13 2 12 9 -4 12 -30 16 -31 93 -38 l67 -6 -38 36 -37 36 44 -36 c46 -37 67
-46 58 -23 -3 6 -8 21 -12 32 -6 16 -5 17 4 5 8 -12 11 -7 11 23 0 20 3 37 6
37 3 0 4 -18 2 -40z m281 0 c-18 -22 -34 -40 -37 -40 -5 0 12 24 42 58 33 37
29 25 -5 -18z m91 36 c0 -2 -8 -10 -17 -17 -16 -13 -17 -12 -4 4 13 16 21 21
21 13z m10 -40 c0 -2 -8 -10 -17 -17 -16 -13 -17 -12 -4 4 13 16 21 21 21 13z
m-301 -51 c0 -5 -4 -3 -9 5 -5 8 -9 22 -9 30 0 16 17 -16 18 -35z m119 -22
c-10 -2 -28 -2 -40 0 -13 2 -5 4 17 4 22 1 32 -1 23 -4z m-135 -90 c-13 -2
-35 -2 -50 0 -16 2 -5 4 22 4 28 0 40 -2 28 -4z m127 -32 c-5 -11 -25 -30 -42
-42 -31 -21 -30 -20 7 18 46 48 49 50 35 24z m-201 -25 c-15 -14 -89 -45 -89
-37 0 5 8 12 18 14 9 3 -12 6 -48 8 l-65 3 80 6 c44 3 86 7 94 8 8 1 12 0 10
-2z m338 -28 c-3 -7 -5 -2 -5 12 0 14 2 19 5 13 2 -7 2 -19 0 -25z m30 0 c-3
-7 -5 -2 -5 12 0 14 2 19 5 13 2 -7 2 -19 0 -25z m25 -7 c1 -17 4 -28 8 -26
12 7 80 -73 101 -119 10 -22 19 -54 19 -70 0 -39 -7 -30 -14 19 -4 21 -17 57
-30 80 -27 45 -76 95 -76 76 0 -7 -4 -9 -10 -6 -5 3 -10 25 -10 47 0 47 11 46
12 -1z m-598 4 c-19 -15 -18 -16 9 -40 33 -30 42 -31 59 -7 7 10 20 22 28 27
8 4 5 -3 -7 -17 -31 -33 -29 -44 5 -24 l27 17 -22 -20 c-28 -23 -28 -28 -5
-34 13 -4 12 -5 -5 -6 -12 0 -26 5 -30 12 -4 8 -23 22 -41 32 -47 28 -56 75
-14 75 13 0 13 -2 -4 -15z m216 -5 c-8 -5 -19 -10 -25 -10 -5 0 -3 5 5 10 8 5
20 10 25 10 6 0 3 -5 -5 -10z m110 -5 c0 -6 -56 -35 -67 -35 -4 1 8 9 27 20
39 22 40 22 40 15z m321 -102 c13 -16 12 -17 -3 -4 -10 7 -18 15 -18 17 0 8 8
3 21 -13z m-37 -84 c12 -14 2 -5 -21 20 -24 25 -43 50 -43 55 0 5 10 -4 22
-20 12 -16 31 -41 42 -55z m-482 -59 c23 -86 25 -89 64 -96 38 -7 44 -14 12
-14 -14 0 -35 8 -46 18 -22 18 -63 150 -61 193 l2 24 4 -25 c2 -14 13 -59 25
-100z m48 117 c0 -2 -12 -14 -27 -28 l-28 -24 24 28 c23 25 31 32 31 24z m97
-59 c-3 -8 -6 -5 -6 6 -1 11 2 17 5 13 3 -3 4 -12 1 -19z m402 -79 c20 -8 28
-7 39 8 13 17 14 17 10 -2 -2 -11 -12 -21 -24 -23 -24 -3 -103 54 -129 95 -12
18 -1 10 30 -20 27 -27 60 -53 74 -58z m-336 -29 c4 -14 4 -19 1 -13 -4 9 -16
6 -42 -12 -20 -14 -43 -25 -51 -25 -8 0 6 11 30 24 46 24 46 25 35 101 l-6 40
13 -45 c7 -25 16 -56 20 -70z m-76 68 c-3 -8 -6 -5 -6 6 -1 11 2 17 5 13 3 -3
4 -12 1 -19z m140 -665 c-2 -16 -4 -5 -4 22 0 28 2 40 4 28 2 -13 2 -35 0 -50z
m-51 -3 c8 0 14 -5 14 -11 0 -6 -7 -9 -15 -5 -12 4 -15 -3 -15 -34 0 -33 3
-40 20 -40 14 0 20 7 21 23 2 21 2 21 6 -2 4 -19 7 -21 14 -10 7 11 9 11 9 -3
0 -14 -9 -18 -40 -18 l-40 0 1 78 c1 42 4 65 6 50 2 -16 11 -28 19 -28z m325
-36 c7 -8 14 -38 16 -66 3 -47 0 -53 -33 -84 -34 -32 -74 -45 -74 -24 0 5 7 7
15 4 10 -4 15 0 16 12 0 11 3 14 6 6 7 -18 23 -4 24 21 0 21 1 21 9 2 7 -17 9
-17 9 -2 1 9 5 17 10 17 5 0 9 20 8 44 -1 24 -5 42 -9 40 -4 -3 -5 3 -1 12 4
12 3 15 -5 10 -7 -4 -12 -2 -12 4 0 7 -12 9 -30 6 -16 -2 -30 0 -30 5 0 15 67
10 81 -7z m-274 -16 c-3 -8 -6 -5 -6 6 -1 11 2 17 5 13 3 -3 4 -12 1 -19z
m230 -24 c-6 -20 -13 -32 -14 -27 -4 11 14 63 21 63 2 0 -1 -16 -7 -36z m-46
-11 c-12 -20 -14 -14 -5 12 4 9 9 14 11 11 3 -2 0 -13 -6 -23z m-49 -15 c-7
-7 -12 -8 -12 -2 0 14 12 26 19 19 2 -3 -1 -11 -7 -17z m-41 -35 c-11 -21 -20
-33 -21 -26 0 13 33 73 38 68 2 -2 -6 -20 -17 -42z m143 3 c-3 -21 -8 -35 -11
-32 -2 2 -1 20 3 40 3 21 8 35 11 32 2 -2 1 -20 -3 -40z m23 12 c-3 -8 -6 -5
-6 6 -1 11 2 17 5 13 3 -3 4 -12 1 -19z m-116 -21 c-8 -8 -11 -7 -11 4 0 20
13 34 18 19 3 -7 -1 -17 -7 -23z m26 11 c-3 -8 -6 -5 -6 6 -1 11 2 17 5 13 3
-3 4 -12 1 -19z m17 -22 c-3 -15 -8 -25 -11 -23 -2 3 -1 17 3 31 3 15 8 25 11
23 2 -3 1 -17 -3 -31z m21 -6 c-4 -17 -9 -30 -11 -27 -2 2 -1 18 2 36 4 17 9
30 11 27 3 -2 2 -19 -2 -36z m-385 -307 l-24 -5 24 -15 c17 -9 18 -12 5 -8
-11 4 -29 9 -40 12 -16 3 -15 1 5 -11 28 -17 19 -22 -11 -6 -15 8 -23 7 -34
-3 -8 -8 -12 -17 -9 -20 3 -2 -5 -7 -17 -10 -21 -6 -21 -5 2 20 27 29 75 53
104 51 15 0 14 -2 -5 -5z m0 -68 c28 -14 50 -28 50 -30 0 -5 -99 42 -109 51
-12 11 15 1 59 -21z m107 -37 c-3 -7 -5 -2 -5 12 0 14 2 19 5 13 2 -7 2 -19 0
-25z m-183 10 c-5 -7 -2 -9 8 -6 8 4 15 1 15 -7 0 -10 -6 -11 -24 -2 -17 8
-20 13 -11 19 18 11 20 10 12 -4z m116 -24 c0 -2 -9 0 -20 6 -11 6 -20 13 -20
16 0 2 9 0 20 -6 11 -6 20 -13 20 -16z m-163 1 c0 -8 -5 -15 -10 -15 -5 0 -7
-11 -5 -25 3 -14 1 -25 -3 -25 -10 0 -12 41 -3 64 8 20 21 21 21 1z m47 -27
c-5 -7 -2 -9 8 -6 8 4 15 0 15 -7 0 -10 -5 -11 -19 -4 -10 6 -15 15 -12 21 5
7 2 9 -8 6 -8 -4 -15 0 -15 7 0 10 5 11 19 4 10 -6 15 -15 12 -21z m76 -4 c0
-2 -9 0 -20 6 -11 6 -20 13 -20 16 0 2 9 0 20 -6 11 -6 20 -13 20 -16z m91 18
c0 9 2 10 5 1 9 -20 -15 -55 -29 -43 -7 6 -21 17 -32 26 -17 13 -15 12 13 -1
35 -17 43 -11 15 12 -16 13 -16 13 5 3 17 -8 22 -8 23 2z m-181 -48 c0 -2 -9
0 -20 6 -11 6 -20 13 -20 16 0 2 9 0 20 -6 11 -6 20 -13 20 -16z m116 -4 c3 0
0 8 -7 17 -9 11 -3 9 19 -6 39 -27 33 -39 -32 -70 -46 -23 -81 -28 -70 -10 4
7 0 9 -13 5 -26 -8 -75 41 -53 54 16 10 51 -5 47 -22 -1 -6 4 -13 12 -16 10
-3 11 0 5 9 -5 9 1 8 19 -3 33 -22 58 -24 31 -2 -18 15 -18 15 3 5 29 -15 36
-14 30 3 -4 10 1 12 16 9 20 -4 20 -3 -3 11 -30 18 -44 20 -34 5 5 -8 2 -9
-11 -1 -10 5 -20 17 -21 26 -2 14 1 14 26 1 16 -8 32 -15 36 -15z m-66 -26 c0
-2 -9 0 -20 6 -11 6 -20 13 -20 16 0 2 9 0 20 -6 11 -6 20 -13 20 -16z"/>
<path d="M915 3790 c3 -5 11 -10 16 -10 6 0 7 5 4 10 -3 6 -11 10 -16 10 -6 0
-7 -4 -4 -10z"/>
<path d="M981 3761 c-10 -6 -9 -10 3 -14 8 -3 18 -2 21 3 8 13 -9 20 -24 11z"/>
<path d="M836 2038 c-24 -100 -31 -224 -16 -287 12 -53 28 -66 37 -31 3 11 9
18 13 15 26 -16 70 94 70 176 0 44 -6 68 -30 110 -17 30 -33 62 -36 72 -11 31
-20 18 -38 -55z m51 -20 c-3 -7 -5 -2 -5 12 0 14 2 19 5 13 2 -7 2 -19 0 -25z
m-30 -20 c-3 -8 -6 -5 -6 6 -1 11 2 17 5 13 3 -3 4 -12 1 -19z m40 -30 c-3 -8
-6 -5 -6 6 -1 11 2 17 5 13 3 -3 4 -12 1 -19z m-50 -115 c-2 -21 -4 -4 -4 37
0 41 2 58 4 38 2 -21 2 -55 0 -75z m10 -90 c-3 -10 -5 -4 -5 12 0 17 2 24 5
18 2 -7 2 -21 0 -30z"/>
<path d="M670 526 c0 -2 7 -7 16 -10 8 -3 12 -2 9 4 -6 10 -25 14 -25 6z"/>
<path d="M516 511 c-7 -11 32 -46 40 -38 4 4 -1 10 -10 13 -12 5 -14 9 -6 14
8 5 7 9 -4 13 -8 3 -18 2 -20 -2z"/>
<path d="M585 470 c3 -5 11 -10 16 -10 6 0 7 5 4 10 -3 6 -11 10 -16 10 -6 0
-7 -4 -4 -10z"/>
<path d="M780 3838 c-25 -5 -65 -13 -90 -19 -25 -5 -59 -11 -77 -14 -17 -2
-78 -24 -136 -49 -58 -25 -111 -46 -116 -46 -6 0 -11 -12 -11 -26 0 -21 4 -24
23 -20 l22 6 -23 -12 c-23 -12 -27 -46 -7 -60 6 -5 5 -8 -2 -8 -7 0 -13 -6
-13 -14 0 -8 6 -17 13 -19 10 -4 10 -6 0 -6 -7 -1 -13 -5 -13 -11 0 -6 10 -5
25 2 13 6 22 14 20 18 -3 4 15 15 39 24 45 17 149 86 131 86 -6 1 3 8 19 17
36 19 140 103 129 103 -4 1 21 12 56 26 93 35 95 39 11 22z m-161 -41 c-16
-13 -79 -48 -79 -44 0 7 63 47 74 47 5 0 7 -1 5 -3z m80 -11 c-2 -2 -15 -9
-29 -15 -24 -11 -24 -11 -6 3 16 13 49 24 35 12z m-59 -31 c0 -2 -10 -9 -22
-15 -22 -11 -22 -10 -4 4 21 17 26 19 26 11z m-140 -30 c0 -2 -10 -9 -22 -15
-22 -11 -22 -10 -4 4 21 17 26 19 26 11z m90 0 c0 -2 -10 -9 -22 -15 -22 -11
-22 -10 -4 4 21 17 26 19 26 11z m-50 -65 c-8 -5 -19 -10 -25 -10 -5 0 -3 5 5
10 8 5 20 10 25 10 6 0 3 -5 -5 -10z m-90 -10 c-8 -5 -19 -10 -25 -10 -5 0 -3
5 5 10 8 5 20 10 25 10 6 0 3 -5 -5 -10z m-50 -20 c-8 -5 -19 -10 -25 -10 -5
0 -3 5 5 10 8 5 20 10 25 10 6 0 3 -5 -5 -10z m70 0 c-8 -5 -19 -10 -25 -10
-5 0 -3 5 5 10 8 5 20 10 25 10 6 0 3 -5 -5 -10z"/>
<path d="M800 3580 c0 -5 5 -10 10 -10 6 0 10 5 10 10 0 6 -4 10 -10 10 -5 0
-10 -4 -10 -10z"/>
<path d="M802 3130 c0 -19 2 -27 5 -17 2 9 2 25 0 35 -3 9 -5 1 -5 -18z"/>
<path d="M802 3060 c0 -19 2 -27 5 -17 2 9 2 25 0 35 -3 9 -5 1 -5 -18z"/>
<path d="M820 3070 c0 -11 2 -20 4 -20 2 0 6 9 9 20 3 11 1 20 -4 20 -5 0 -9
-9 -9 -20z"/>
<path d="M864 1185 c0 -49 1 -71 3 -48 2 23 2 64 0 90 -2 26 -3 8 -3 -42z"/>
<path d="M712 1200 c0 -19 2 -27 5 -17 2 9 2 25 0 35 -3 9 -5 1 -5 -18z"/>
<path d="M691 1203 c0 -6 -4 -20 -7 -30 -5 -14 -4 -15 5 -7 7 7 11 20 8 30 -3
11 -5 14 -6 7z"/>
<path d="M712 1130 c0 -19 2 -27 5 -17 2 9 2 25 0 35 -3 9 -5 1 -5 -18z"/>
<path d="M922 1008 c-7 -7 -12 -21 -12 -32 1 -18 3 -17 16 7 17 31 15 44 -4
25z"/>
<path d="M1138 714 c-16 -8 -28 -19 -28 -24 0 -6 -6 -10 -13 -10 -8 0 -45 -21
-83 -46 -38 -25 -62 -44 -54 -41 50 17 49 15 -5 -12 -33 -16 -81 -49 -107 -74
-29 -27 -71 -53 -108 -67 -92 -35 -81 -34 95 1 33 7 69 13 80 15 11 1 73 24
137 51 102 42 118 51 118 71 0 19 -4 22 -22 18 l-23 -6 23 11 c26 14 30 41 5
33 -15 -5 -15 -4 1 6 15 10 16 14 5 21 -10 6 -11 9 -1 9 6 0 12 7 12 15 0 8
-6 15 -12 15 -9 0 -8 3 2 10 25 16 6 19 -22 4z m-38 -74 c-8 -5 -19 -10 -25
-10 -5 0 -3 5 5 10 8 5 20 10 25 10 6 0 3 -5 -5 -10z m-50 -20 c-8 -5 -19 -10
-25 -10 -5 0 -3 5 5 10 8 5 20 10 25 10 6 0 3 -5 -5 -10z m20 -20 c-8 -5 -19
-10 -25 -10 -5 0 -3 5 5 10 8 5 20 10 25 10 6 0 3 -5 -5 -10z m25 -28 c-17
-15 -105 -63 -105 -58 0 3 24 19 53 36 52 30 69 37 52 22z m-125 -17 c0 -2
-10 -9 -22 -15 -22 -11 -22 -10 -4 4 21 17 26 19 26 11z m-80 -50 c0 -6 -56
-35 -67 -35 -4 1 8 9 27 20 39 22 40 22 40 15z m60 -20 c0 -2 -10 -9 -22 -15
-22 -11 -22 -10 -4 4 21 17 26 19 26 11z"/>
</g>
</svg>
