<?xml version="1.0" standalone="no"?>
<!DOCTYPE svg PUBLIC "-//W3C//DTD SVG 20010904//EN"
 "http://www.w3.org/TR/2001/REC-SVG-20010904/DTD/svg10.dtd">
<svg version="1.0" xmlns="http://www.w3.org/2000/svg"
 width="367.000000pt" height="244.000000pt" viewBox="0 0 367.000000 244.000000"
 preserveAspectRatio="xMidYMid meet">

<g transform="translate(0.000000,244.000000) scale(0.100000,-0.100000)"
fill="#000000" stroke="none">
<path d="M483 2190 c-210 -107 -355 -514 -356 -1000 0 -420 100 -775 268 -945
123 -126 247 -126 371 0 l60 62 50 -52 c68 -71 123 -99 199 -100 73 0 127 28
198 104 l47 50 52 -56 c70 -73 117 -97 193 -97 76 0 130 27 197 98 l49 53 62
-62 c61 -60 127 -95 182 -95 63 0 127 32 190 95 l63 63 40 -47 c87 -103 216
-136 313 -79 26 15 67 50 92 78 l45 50 54 -56 c70 -74 117 -98 193 -98 118 0
211 80 299 257 96 192 144 409 153 692 11 339 -40 621 -152 850 -133 270 -338
333 -499 153 l-45 -50 -55 56 c-66 68 -122 95 -195 96 -73 0 -128 -28 -193
-98 l-52 -57 -54 57 c-68 71 -120 98 -193 98 -74 -1 -129 -28 -194 -96 l-54
-57 -47 52 c-122 135 -277 135 -399 -1 l-46 -51 -45 50 c-119 137 -275 137
-400 0 l-49 -53 -30 37 c-17 21 -54 55 -83 76 -47 33 -62 38 -120 41 -53 2
-76 -1 -109 -18z m1147 -1005 l0 -225 -40 0 -40 0 0 225 0 225 40 0 40 0 0
-225z m370 0 l0 -225 -40 0 -40 0 0 225 0 225 40 0 40 0 0 -225z m410 0 l0
-225 -40 0 -40 0 0 225 0 225 40 0 40 0 0 -225z m366 153 c20 -40 74 -142 120
-225 l82 -153 -43 0 -42 0 -116 219 c-65 120 -117 221 -117 225 0 3 17 6 39 6
38 0 39 -2 77 -72z m-1396 -113 c40 -88 83 -184 96 -212 l23 -53 -42 0 -42 0
-78 176 -79 177 17 44 c10 25 21 41 26 36 4 -4 40 -80 79 -168z m437 146 c12
-9 30 -31 39 -50 21 -44 6 -102 -36 -133 -16 -11 -27 -24 -25 -28 2 -4 20 -50
39 -103 l34 -97 -42 0 -42 0 -37 91 c-37 89 -39 109 -12 109 34 0 45 30 45
117 0 68 -4 91 -17 106 -17 19 -17 19 7 12 14 -4 35 -15 47 -24z m394 -28
c101 -108 79 -288 -42 -357 l-34 -19 28 28 27 28 0 160 c0 153 -1 162 -22 185
-21 22 -21 24 -3 14 11 -6 32 -23 46 -39z m-1466 6 c-13 -25 -16 -58 -13 -179
3 -131 5 -151 23 -170 l20 -23 -21 11 c-36 19 -83 80 -95 124 -23 86 8 201 67
247 35 28 37 27 19 -10z m261 -30 c31 -42 30 -49 -6 -49 -23 0 -30 4 -30 20 0
11 -7 36 -15 56 -14 34 -14 34 6 20 11 -7 31 -29 45 -47z m39 -176 c-12 -64
-54 -131 -98 -154 -15 -9 -15 -6 3 23 15 24 20 51 20 101 l0 67 41 0 41 0 -7
-37z"/>
</g>
</svg>
