<?xml version="1.0" standalone="no"?>
<!DOCTYPE svg PUBLIC "-//W3C//DTD SVG 20010904//EN"
 "http://www.w3.org/TR/2001/REC-SVG-20010904/DTD/svg10.dtd">
<svg version="1.0" xmlns="http://www.w3.org/2000/svg"
 width="224.000000pt" height="201.000000pt" viewBox="0 0 224.000000 201.000000"
 preserveAspectRatio="xMidYMid meet">

<g transform="translate(0.000000,201.000000) scale(0.100000,-0.100000)"
fill="#000000" stroke="none">
<path d="M1091 1955 c-364 -82 -632 -330 -737 -681 -32 -110 -44 -302 -24
-422 59 -369 340 -678 700 -773 264 -69 530 -30 767 113 74 44 213 176 268
253 67 94 123 213 151 321 33 132 35 348 3 475 -84 337 -349 607 -688 700
-100 28 -345 36 -440 14z m279 -401 c0 -8 -19 -13 -24 -6 -3 5 1 9 9 9 8 0 15
-2 15 -3z m-139 -61 c13 -17 12 -17 -4 -4 -16 13 -20 13 -28 0 -5 -8 -9 -9 -9
-3 0 27 22 31 41 7z m117 -24 c2 -8 -3 -5 -12 6 -13 17 -17 18 -25 5 -6 -8
-14 -11 -18 -6 -4 5 -2 11 5 13 6 3 9 10 5 16 -4 7 4 5 17 -4 13 -9 26 -22 28
-30z m189 -1 c-3 -8 -6 -5 -6 6 -1 11 2 17 5 13 3 -3 4 -12 1 -19z m-390 6
c-3 -3 -12 -4 -19 -1 -8 3 -5 6 6 6 11 1 17 -2 13 -5z m132 -54 c0 -9 -6 -4
-14 10 -19 33 -19 49 0 24 8 -10 14 -26 14 -34z m116 -8 c33 -6 33 -14 0 -10
-27 3 -30 7 -32 38 -1 34 -1 34 5 5 5 -19 14 -31 27 -33z m-337 37 c-10 -5
-18 -18 -19 -27 0 -11 -2 -12 -6 -4 -6 15 14 42 31 42 6 0 3 -5 -6 -11z m242
-48 c0 -27 6 -56 15 -67 14 -18 16 -18 29 -1 16 21 22 21 29 3 4 -10 1 -13 -7
-10 -8 3 -18 -7 -25 -24 -12 -30 -26 -39 -94 -66 -21 -8 -41 -25 -47 -38 -5
-13 -9 -17 -9 -10 -1 7 -5 11 -9 8 -4 -2 -14 0 -22 6 -12 8 -12 9 3 4 9 -3 17
-1 17 4 0 6 6 10 13 10 7 0 23 9 35 20 12 11 26 20 32 20 5 0 10 5 10 10 0 6
8 10 18 10 29 0 31 9 15 48 -16 38 -24 134 -10 125 4 -2 7 -26 7 -52z m-59
-83 c34 -43 26 -53 -31 -38 -48 13 -145 16 -178 6 -34 -11 -28 20 8 39 32 17
54 20 30 5 -11 -7 -4 -10 27 -10 24 0 66 -9 95 -20 29 -11 57 -20 62 -20 16 0
-38 52 -64 62 -21 8 -23 11 -9 18 11 6 15 19 13 37 -3 22 -1 20 7 -7 6 -19 24
-52 40 -72z m271 90 c-9 -9 -5 -16 18 -30 17 -10 30 -26 29 -35 0 -15 -2 -14
-9 3 -4 11 -22 27 -39 34 -29 12 -30 14 -14 26 22 17 31 18 15 2z m-55 -4 c-3
-3 -12 -4 -19 -1 -8 3 -5 6 6 6 11 1 17 -2 13 -5z m50 -80 c-3 -3 -12 -4 -19
-1 -8 3 -5 6 6 6 11 1 17 -2 13 -5z m-226 -21 c13 -16 12 -17 -3 -4 -10 7 -18
15 -18 17 0 8 8 3 21 -13z m151 -40 c-6 -3 -9 -10 -6 -16 5 -8 2 -8 -7 1 -7 6
-21 12 -31 12 -10 0 -18 4 -18 8 0 4 17 6 38 3 20 -2 31 -6 24 -8z m-397 -13
c10 -11 16 -20 13 -20 -3 0 -13 9 -23 20 -10 11 -16 20 -13 20 3 0 13 -9 23
-20z m32 14 c-3 -3 -12 -4 -19 -1 -8 3 -5 6 6 6 11 1 17 -2 13 -5z m287 -45
c-3 -6 2 -20 13 -32 l18 -22 -22 18 c-12 11 -26 16 -31 13 -6 -3 -5 5 1 18 7
13 15 22 19 19 5 -2 6 -9 2 -14z m134 -44 c-3 -3 -9 2 -12 12 -6 14 -5 15 5 6
7 -7 10 -15 7 -18z m-378 -19 c0 -2 -8 -10 -17 -17 -16 -13 -17 -12 -4 4 13
16 21 21 21 13z m-26 -52 c3 -8 2 -12 -4 -9 -6 3 -10 10 -10 16 0 14 7 11 14
-7z m76 -314 l0 -150 -25 0 -25 0 0 150 0 150 25 0 25 0 0 -150z m250 0 l0
-150 -30 0 -30 0 0 150 0 150 30 0 30 0 0 -150z m270 0 l0 -150 -30 0 -30 0 0
150 0 150 30 0 30 0 0 -150z m293 6 c42 -79 77 -147 77 -150 0 -3 -11 -6 -24
-6 -21 0 -33 17 -87 118 -34 64 -71 132 -81 150 l-20 32 29 0 c27 0 34 -10
106 -144z m-970 5 c78 -178 75 -163 42 -159 -25 3 -33 15 -80 119 -42 95 -50
120 -42 142 5 15 12 27 16 27 4 0 33 -58 64 -129z m278 116 c19 -15 39 -50 39
-71 0 -8 -11 -28 -24 -43 l-25 -29 24 -67 25 -67 -28 0 c-26 0 -31 7 -54 63
l-25 64 21 9 c19 8 21 18 21 82 0 39 2 72 5 72 3 0 12 -6 21 -13z m-711 -23
c-13 -33 -13 -175 0 -211 l10 -28 -29 32 c-51 55 -53 145 -5 203 31 37 36 38
24 4z m174 -9 c21 -31 20 -35 -4 -35 -14 0 -20 7 -20 23 0 13 -6 29 -12 36
-11 10 -10 11 4 6 9 -4 24 -17 32 -30z m842 -60 c9 -52 -3 -102 -37 -138 l-29
-32 10 28 c5 16 10 64 10 107 0 43 -5 91 -10 107 l-10 28 29 -32 c17 -18 33
-48 37 -68z m-816 -62 c0 -30 -36 -89 -60 -98 -12 -5 -13 -4 -2 6 6 7 12 37
12 66 0 50 1 53 25 53 20 0 25 -5 25 -27z"/>
</g>
</svg>
