<?xml version="1.0" standalone="no"?>
<!DOCTYPE svg PUBLIC "-//W3C//DTD SVG 20010904//EN"
 "http://www.w3.org/TR/2001/REC-SVG-20010904/DTD/svg10.dtd">
<svg version="1.0" xmlns="http://www.w3.org/2000/svg"
 width="207.000000pt" height="211.000000pt" viewBox="0 0 207.000000 211.000000"
 preserveAspectRatio="xMidYMid meet">

<g transform="translate(0.000000,211.000000) scale(0.100000,-0.100000)"
fill="#000000" stroke="none">
<path d="M2060 1060 l0 -1050 -452 1 c-294 1 -430 4 -388 10 361 46 682 320
790 674 33 106 43 192 37 324 -6 151 -30 249 -92 376 -288 596 -1082 730
-1551 261 -453 -453 -346 -1205 217 -1524 100 -57 259 -107 362 -114 18 -2
-197 -5 -478 -8 -408 -4 -302 -6 528 -8 l1037 -2 0 1055 c0 580 -2 1055 -5
1055 -3 0 -5 -472 -5 -1050z m-750 481 c5 -11 10 -31 10 -46 0 -25 1 -25 22
-11 33 23 77 20 207 -16 142 -39 161 -54 161 -130 0 -52 -26 -121 -66 -175
-16 -22 -15 -23 32 -44 59 -25 94 -56 94 -82 0 -35 -49 -105 -95 -137 -62 -43
-117 -61 -208 -69 l-78 -6 60 -44 c89 -64 168 -173 156 -212 -23 -70 -203 -36
-320 60 -59 49 -60 49 -80 32 -31 -28 -78 -50 -126 -57 -61 -9 -83 -22 -169
-98 -82 -73 -146 -103 -239 -113 -71 -7 -101 6 -101 46 0 51 85 157 173 213
26 16 47 31 47 32 0 0 -31 2 -68 3 -162 3 -318 109 -310 210 3 36 6 40 71 71
l68 33 -26 31 c-39 46 -57 96 -59 161 -1 52 2 61 25 81 25 22 123 53 245 79
48 10 60 9 84 -5 25 -14 29 -14 34 -1 3 8 6 22 6 31 0 9 12 28 26 42 14 14 39
47 55 73 25 41 33 48 57 45 42 -5 55 -45 60 -182 l5 -120 23 63 c37 99 94 199
131 231 39 34 78 39 93 11z"/>
<path d="M1221 1518 c-31 -30 -91 -123 -91 -141 0 -5 7 -1 16 7 8 9 22 16 30
16 8 0 14 4 14 9 0 6 20 39 45 75 48 71 41 88 -14 34z"/>
<path d="M1264 1507 c-16 -20 -37 -51 -48 -70 -18 -35 -18 -35 5 -67 l24 -32
13 29 13 28 -7 -30 c-8 -35 -8 -42 1 -75 5 -20 2 -18 -15 10 -17 28 -20 30
-15 10 6 -23 5 -24 -6 -5 -7 11 -21 33 -32 49 -12 16 -15 26 -7 21 9 -6 11 -4
5 4 -5 9 -11 9 -17 3 -7 -7 -6 -22 2 -47 7 -20 10 -38 8 -41 -3 -2 -10 15 -17
38 l-13 42 -14 -33 c-27 -64 -11 -339 21 -369 4 -4 5 4 1 18 -4 14 -9 81 -11
150 l-4 125 9 -125 c10 -133 19 -179 35 -180 6 0 13 16 16 37 5 34 6 35 8 8
l1 -29 21 20 c13 14 22 40 27 80 l7 59 6 -55 c4 -31 5 -9 3 50 -3 58 -5 114
-5 125 0 11 5 40 11 65 16 64 23 171 13 199 l-9 24 -30 -36z m33 -29 c-3 -8
-6 -5 -6 6 -1 11 2 17 5 13 3 -3 4 -12 1 -19z m-10 -40 c-3 -8 -6 -5 -6 6 -1
11 2 17 5 13 3 -3 4 -12 1 -19z m-90 -180 c-3 -8 -6 -5 -6 6 -1 11 2 17 5 13
3 -3 4 -12 1 -19z m10 -50 c-3 -8 -6 -5 -6 6 -1 11 2 17 5 13 3 -3 4 -12 1
-19z m60 -45 c-3 -10 -5 -2 -5 17 0 19 2 27 5 18 2 -10 2 -26 0 -35z m-50 -45
c-2 -13 -4 -5 -4 17 -1 22 1 32 4 23 2 -10 2 -28 0 -40z"/>
<path d="M957 1498 c-33 -45 -50 -78 -39 -78 5 0 15 13 22 30 7 16 19 35 26
41 8 7 3 -8 -10 -32 -23 -40 -24 -45 -9 -61 13 -14 18 -16 25 -6 5 9 8 7 8 -7
0 -11 9 -31 19 -45 l20 -25 3 98 c2 53 0 97 -3 97 -3 0 -11 -15 -17 -32 -9
-25 -10 -27 -7 -6 3 14 8 33 11 42 11 29 -24 17 -49 -16z m30 -80 c-3 -8 -6
-5 -6 6 -1 11 2 17 5 13 3 -3 4 -12 1 -19z"/>
<path d="M1348 1470 c-20 -15 -27 -32 -32 -77 -4 -31 -9 -69 -12 -83 -4 -16 8
-4 34 35 22 33 53 71 68 85 18 16 13 7 -13 -25 -36 -44 -110 -175 -99 -175 2
0 36 33 76 73 l73 72 -69 -78 c-97 -110 -94 -117 31 -73 39 13 88 27 110 30
22 3 4 -4 -40 -17 -80 -24 -135 -44 -135 -49 0 -2 35 -4 78 -4 43 0 103 -8
136 -18 l59 -18 19 23 c10 13 27 40 38 61 22 41 39 125 23 115 -5 -3 -8 6 -5
23 5 33 -19 53 -83 69 -22 5 -60 15 -84 22 -35 10 -48 10 -65 -1 -19 -12 -20
-11 -8 2 10 13 9 17 -10 22 -40 10 -65 7 -90 -14z m152 -64 c0 -2 -12 -11 -27
-20 l-28 -17 24 20 c23 21 31 25 31 17z m169 -92 c-15 -18 -82 -54 -101 -54
-7 0 10 11 38 24 28 13 55 29 58 35 4 6 10 11 13 11 3 0 0 -7 -8 -16z"/>
<path d="M1029 1395 c-3 -51 0 -99 6 -110 14 -28 19 84 7 151 -9 48 -9 47 -13
-41z"/>
<path d="M885 1400 c-16 -26 -16 -149 -1 -224 23 -109 59 -180 129 -253 49
-51 66 -63 91 -63 l31 0 -44 37 c-24 21 -61 64 -82 96 -37 57 -99 202 -99 229
1 7 15 -26 33 -73 19 -48 48 -109 66 -137 32 -51 122 -142 140 -142 18 0 22
39 8 67 -8 15 -33 82 -57 148 -23 66 -60 155 -83 198 -48 94 -112 150 -132
117z m59 -64 c35 -52 112 -234 103 -242 -2 -3 -14 24 -27 58 -30 84 -73 168
-104 205 -14 17 -26 34 -26 38 0 14 20 -7 54 -59z m-57 -28 c-3 -8 -6 -5 -6 6
-1 11 2 17 5 13 3 -3 4 -12 1 -19z m183 -263 c0 -5 -5 -3 -10 5 -5 8 -10 20
-10 25 0 6 5 3 10 -5 5 -8 10 -19 10 -25z m24 -52 c9 -18 14 -33 12 -33 -6 0
-36 55 -36 66 0 11 5 3 24 -33z m57 -90 c13 -16 12 -17 -3 -4 -10 7 -18 15
-18 17 0 8 8 3 21 -13z"/>
<path d="M1210 1352 c6 -13 14 -21 18 -18 3 4 -2 14 -12 24 -18 16 -18 16 -6
-6z"/>
<path d="M1096 1289 c-26 -71 -28 -129 -5 -129 6 0 8 -3 6 -7 -3 -5 1 -21 8
-38 15 -34 19 -15 6 30 -5 20 -3 64 5 120 7 49 12 91 10 93 -2 1 -15 -30 -30
-69z"/>
<path d="M637 1316 c-137 -39 -168 -60 -149 -101 7 -15 8 -24 2 -20 -6 3 -10
-4 -10 -16 0 -41 23 -100 55 -136 l32 -37 59 17 c33 9 96 17 140 18 l79 1 -35
15 c-19 9 -62 24 -95 34 -33 9 -53 18 -44 18 14 1 128 -33 182 -54 42 -17 11
32 -73 116 -49 49 -75 79 -57 67 18 -13 60 -52 95 -87 34 -35 62 -61 62 -57 0
26 -71 139 -115 183 -30 29 -46 49 -36 44 26 -14 97 -94 115 -130 22 -42 29
-39 22 9 -3 22 -9 58 -12 80 -4 31 -12 44 -34 55 -38 20 -46 19 -183 -19z
m-24 -191 c23 -8 33 -14 22 -14 -24 -1 -120 42 -129 58 -4 6 9 2 29 -10 19
-12 54 -27 78 -34z"/>
<path d="M1323 1160 c-19 -8 -23 -17 -23 -55 0 -25 2 -45 5 -45 2 0 38 11 78
25 82 27 197 41 239 28 19 -6 1 -8 -60 -8 -69 -1 -105 -7 -174 -30 -49 -16
-88 -33 -88 -37 0 -4 21 -6 48 -3 l47 4 -43 -9 c-23 -5 -47 -12 -52 -15 -5 -3
-8 -40 -6 -83 2 -42 2 -63 0 -47 -2 17 -7 49 -10 73 -3 23 -9 42 -14 42 -12 0
-40 -99 -33 -119 4 -13 3 -13 -5 -2 -8 11 -12 10 -21 -6 -5 -11 -7 -24 -3 -28
4 -5 2 -6 -3 -2 -6 3 -18 -1 -28 -8 -16 -11 -15 -16 18 -71 l35 -58 1 35 c1
23 3 27 6 11 6 -31 23 -17 19 16 -2 15 -1 19 1 10 2 -10 8 -18 13 -18 5 0 7 8
4 18 -5 15 -4 15 6 -1 9 -14 9 -21 0 -32 -7 -8 -10 -19 -8 -24 6 -16 173 -146
205 -160 17 -7 48 -11 69 -9 34 3 39 6 40 28 1 39 -24 80 -85 140 -46 45 -181
132 -181 117 0 -2 33 -29 73 -60 39 -31 99 -84 132 -119 l60 -63 -60 56 c-122
115 -215 180 -215 151 0 -21 67 -105 113 -144 69 -56 76 -62 51 -49 -34 17
-128 106 -143 135 -8 14 -21 26 -29 26 -9 0 -12 6 -7 18 21 52 29 124 19 172
-7 35 -7 47 0 40 6 -6 63 -10 136 -10 110 0 205 -9 262 -26 13 -4 20 5 29 37
12 39 11 42 -12 61 -13 11 -17 17 -9 13 8 -4 7 0 -4 9 -10 8 -57 29 -105 47
-68 25 -105 33 -176 35 -49 2 -100 0 -112 -6z m367 -70 c8 -5 11 -10 5 -10 -5
0 -17 5 -25 10 -8 5 -10 10 -5 10 6 0 17 -5 25 -10z m-137 -47 c-29 -2 -77 -2
-105 0 -29 2 -6 3 52 3 58 0 81 -1 53 -3z m104 -9 c-3 -3 -12 -4 -19 -1 -8 3
-5 6 6 6 11 1 17 -2 13 -5z m-370 -226 c-3 -7 -5 -2 -5 12 0 14 2 19 5 13 2
-7 2 -19 0 -25z m-58 -18 c0 -10 -3 -8 -9 5 -12 27 -12 43 0 25 5 -8 9 -22 9
-30z m320 -216 c14 -12 -19 -1 -35 12 -18 14 -18 14 6 3 14 -6 27 -13 29 -15z"/>
<path d="M642 1015 c-66 -18 -200 -74 -207 -86 -3 -4 19 3 50 17 42 20 73 26
124 26 86 1 146 -14 303 -74 70 -26 133 -48 140 -48 20 0 -113 129 -157 152
-52 28 -178 34 -253 13z"/>
<path d="M1330 946 c0 -28 4 -35 23 -39 l22 -4 -22 -2 c-17 -1 -23 -7 -23 -25
0 -16 7 -26 23 -30 49 -13 202 -2 192 14 -3 4 13 10 34 13 43 5 138 64 124 77
-15 15 -150 30 -262 30 l-111 0 0 -34z m77 -52 c-3 -3 -12 -4 -19 -1 -8 3 -5
6 6 6 11 1 17 -2 13 -5z m40 -10 c-3 -3 -12 -4 -19 -1 -8 3 -5 6 6 6 11 1 17
-2 13 -5z m56 -11 c-7 -2 -21 -2 -30 0 -10 3 -4 5 12 5 17 0 24 -2 18 -5z"/>
<path d="M505 885 c-70 -18 -85 -29 -65 -49 13 -12 26 -12 90 0 41 7 127 13
190 12 l115 -1 -135 -7 c-74 -4 -147 -10 -162 -14 -16 -3 -40 -9 -55 -12 l-28
-6 25 -19 c47 -37 99 -59 142 -60 36 -1 39 -2 18 -9 -23 -7 -23 -8 14 -15 55
-11 199 0 233 18 15 8 50 27 77 41 41 21 45 26 25 27 l-24 1 25 8 25 7 -25 5
c-14 3 -6 3 17 1 23 -2 44 1 47 6 7 10 -6 15 -154 51 -113 29 -311 36 -395 15z
m383 -52 c-10 -2 -26 -2 -35 0 -10 3 -2 5 17 5 19 0 27 -2 18 -5z m55 -10 c-7
-2 -19 -2 -25 0 -7 3 -2 5 12 5 14 0 19 -2 13 -5z m10 -40 c-7 -2 -21 -2 -30
0 -10 3 -4 5 12 5 17 0 24 -2 18 -5z m-78 -13 c-16 -4 -39 -8 -50 -8 -16 0
-15 2 5 8 14 4 36 8 50 8 22 0 22 -1 -5 -8z m-78 -16 c-3 -3 -12 -4 -19 -1 -8
3 -5 6 6 6 11 1 17 -2 13 -5z m-40 -10 c-3 -3 -12 -4 -19 -1 -8 3 -5 6 6 6 11
1 17 -2 13 -5z m-44 -11 c-7 -2 -19 -2 -25 0 -7 3 -2 5 12 5 14 0 19 -2 13 -5z"/>
<path d="M1036 776 c-48 -17 -99 -42 -113 -56 -29 -28 -46 -67 -39 -87 3 -8 0
-13 -7 -11 -8 2 -32 -19 -55 -45 -23 -27 -57 -60 -75 -74 -17 -15 -10 -4 17
23 50 51 106 126 106 142 0 22 -34 20 -83 -5 -68 -34 -180 -146 -196 -196 -12
-34 -11 -40 6 -53 12 -10 30 -12 53 -9 19 4 49 8 67 10 53 6 115 39 193 105
94 78 91 74 55 66 -33 -8 -101 -52 -185 -121 -30 -25 -59 -45 -63 -45 -10 0
101 88 176 139 35 24 53 41 45 45 -7 3 6 4 28 1 48 -6 126 7 175 29 l34 15
-35 -5 -35 -4 40 14 40 13 -85 5 -85 4 97 2 c53 1 100 6 103 12 12 20 -55 122
-79 119 -6 -1 -51 -16 -100 -33z m-27 -92 c10 -9 -35 -3 -49 6 -11 8 -7 9 15
4 17 -4 32 -8 34 -10z m-183 -27 c-16 -12 -56 -44 -89 -72 -118 -99 -141 -116
-82 -60 76 72 177 154 190 154 6 0 -3 -10 -19 -22z m252 -24 c-15 -2 -42 -2
-60 0 -18 2 -6 4 27 4 33 0 48 -2 33 -4z m-423 -193 c-3 -5 -12 -10 -18 -10
-7 0 -6 4 3 10 19 12 23 12 15 0z"/>
<path d="M1245 699 c-15 -23 91 -104 175 -134 24 -8 42 -14 39 -11 -29 26
-196 156 -201 156 -4 0 -10 -5 -13 -11z"/>
</g>
</svg>
